Coordinates
version=1
nRows=34
nColumns=34
inDegrees=no

Units are S.I. units (second, meters, Newtons, ...)
If the header above contains a line with 'inDegrees', this indicates whether rotational values are in degrees (yes) or radians (no).

endheader
time	pelvis_tilt	pelvis_list	pelvis_rotation	pelvis_tx	pelvis_ty	pelvis_tz	hip_flexion_r	hip_adduction_r	hip_rotation_r	knee_angle_r	ankle_angle_r	subtalar_angle_r	mtp_angle_r	hip_flexion_l	hip_adduction_l	hip_rotation_l	knee_angle_l	ankle_angle_l	subtalar_angle_l	mtp_angle_l	lumbar_extension	lumbar_bending	lumbar_rotation	arm_flex_r	arm_add_r	arm_rot_r	elbow_flex_r	pro_sup_r	arm_flex_l	arm_add_l	arm_rot_l	elbow_flex_l	pro_sup_l
0.08	-0.106788	-0.0546258	0.171494	-2.86535	1.00084	0.153439	0.846269	-0.141101	-0.410048	0.552782	0.0486684	0.0675405	0.222179	-0.233483	-0.168283	0.0684771	1.80287	-0.285386	-0.124712	0.371742	-0.137477	0.188497	-0.246208	-0.869765	-0.365446	-0.279481	1.14652	2.07958	0.145036	-0.208366	0.095437	1.60583	2.36129
0.081	-0.100561	-0.0564407	0.166192	-2.82958	1.00061	0.154041	0.817715	-0.132949	-0.434004	0.556349	0.0444056	0.0492454	0.221005	-0.203725	-0.168643	0.066835	1.87746	-0.271705	-0.152505	0.361929	-0.154411	0.191573	-0.233307	-0.821123	-0.381876	-0.244561	1.16454	2.04611	0.11543	-0.202504	0.0865215	1.51839	2.369
0.082	-0.0955053	-0.058874	0.159574	-2.79373	1.0001	0.154716	0.790888	-0.123874	-0.455214	0.56514	0.0399536	0.0349081	0.218476	-0.171531	-0.168918	0.0650268	1.94997	-0.255354	-0.179272	0.364137	-0.169538	0.195142	-0.218216	-0.771133	-0.398296	-0.215059	1.17596	2.05584	0.0902825	-0.195928	0.0789416	1.42702	2.35835
0.083	-0.0928173	-0.0613098	0.152114	-2.7578	0.999258	0.155422	0.766515	-0.114682	-0.470795	0.576496	0.0351038	0.0267983	0.213943	-0.134931	-0.168768	0.0639048	2.02016	-0.23903	-0.204016	0.359901	-0.181823	0.198023	-0.201196	-0.720771	-0.413553	-0.182465	1.19153	2.0208	0.0688186	-0.188955	0.0700787	1.33062	2.35099
0.084	-0.0887355	-0.06595	0.143594	-2.72179	0.99835	0.156338	0.73995	-0.101572	-0.481682	0.587251	0.0281034	0.0256891	0.21408	-0.0983029	-0.17067	0.0639246	2.08726	-0.220052	-0.22104	0.362234	-0.195109	0.203092	-0.182631	-0.667284	-0.429609	-0.153233	1.19948	2.02936	0.051466	-0.180583	0.0621762	1.2294	2.33566
0.085	-0.0841437	-0.0704406	0.135686	-2.68562	0.9973	0.15712	0.711356	-0.0888106	-0.489	0.597498	0.0205717	0.0350133	0.209348	-0.0602092	-0.173603	0.06471	2.15049	-0.204137	-0.236574	0.350125	-0.208148	0.207766	-0.163028	-0.61313	-0.445021	-0.120479	1.2121	1.99482	0.0379769	-0.171455	0.0546041	1.12423	2.30939
0.086	-0.0861943	-0.0794108	0.125664	-2.6498	0.995347	0.158678	0.691444	-0.0683516	-0.49231	0.607765	0.0234794	0.029063	0.282051	-0.0131221	-0.180375	0.0698883	2.21294	-0.180841	-0.240733	0.365872	-0.214053	0.214785	-0.140848	-0.557171	-0.460348	-0.0904097	1.21901	1.99917	0.0271326	-0.165655	0.0494703	1.01739	2.28909
0.087	-0.0907595	-0.0880768	0.112975	-2.61418	0.993196	0.160424	0.674418	-0.0442945	-0.491373	0.618886	0.034602	0.0140523	0.355598	0.0402464	-0.189546	0.0734169	2.27265	-0.163212	-0.242831	0.367251	-0.217916	0.220471	-0.116752	-0.497735	-0.475123	-0.0575913	1.22743	1.98178	0.0188299	-0.159978	0.0412953	0.906932	2.27557
0.088	-0.0952198	-0.090068	0.0968717	-2.57817	0.990614	0.16242	0.658591	-0.0247991	-0.477023	0.641186	0.0780361	0.00321892	0.453979	0.092833	-0.191908	0.0748231	2.32652	-0.147206	-0.241867	0.379291	-0.221965	0.217236	-0.0916041	-0.435589	-0.489	-0.0237998	1.23173	1.98489	0.00984083	-0.159123	0.0419996	0.799912	2.24079
0.089	-0.104899	-0.0914898	0.0713502	-2.54287	0.988003	0.164508	0.646093	-0.00187927	-0.45614	0.669202	0.138743	-0.0005178	0.464101	0.154473	-0.194263	0.0687253	2.37665	-0.140969	-0.240826	0.36478	-0.223425	0.21205	-0.0575089	-0.369758	-0.50402	0.0118537	1.23737	1.97518	0.00210995	-0.155125	0.0307381	0.694569	2.22756
0.09	-0.115301	-0.0895695	0.0488456	-2.50758	0.984812	0.166053	0.632834	0.0153174	-0.438636	0.705768	0.210449	-0.0157215	0.494411	0.218418	-0.19368	0.065352	2.42296	-0.131179	-0.238954	0.372148	-0.222373	0.203795	-0.0270577	-0.302669	-0.517987	0.0446764	1.24223	1.97869	-0.00620323	-0.154153	0.0260767	0.594812	2.20632
0.091	-0.120734	-0.0861488	0.0249321	-2.47193	0.98174	0.167795	0.613191	0.0326911	-0.415019	0.74342	0.283626	-0.0349445	0.484186	0.277723	-0.194599	0.0606298	2.46243	-0.125298	-0.235517	0.363799	-0.2262	0.192583	0.00424941	-0.232166	-0.52985	0.0793128	1.24803	1.97131	-0.0172146	-0.157353	0.0228169	0.501621	2.19914
0.092	-0.125365	-0.0835982	0.00123399	-2.43616	0.97866	0.169558	0.591798	0.0505999	-0.38859	0.774813	0.344603	-0.0466077	0.497567	0.33687	-0.198586	0.0580459	2.49581	-0.11842	-0.228464	0.372927	-0.230235	0.181362	0.0349823	-0.158898	-0.540298	0.11186	1.25253	1.97357	-0.034053	-0.161606	0.0135872	0.425403	2.17413
0.093	-0.116865	-0.0766158	-0.025616	-2.39958	0.976916	0.171122	0.553647	0.0595719	-0.362585	0.805704	0.394538	-0.0576638	0.481751	0.385014	-0.205228	0.0403299	2.51801	-0.135954	-0.242424	0.336326	-0.247185	0.164223	0.0682317	-0.0828549	-0.548946	0.147557	1.25771	1.96338	-0.0549316	-0.166146	0.00677248	0.364034	2.11917
0.094	-0.110136	-0.076142	-0.0501267	-2.36264	0.975014	0.173202	0.515578	0.0722101	-0.337065	0.832761	0.435611	-0.0588164	0.476158	0.432749	-0.216821	0.031095	2.53574	-0.138814	-0.242941	0.325175	-0.259696	0.152999	0.100304	-0.00822438	-0.555314	0.178012	1.26197	1.97004	-0.0837299	-0.174692	0.0124417	0.322206	2.05537
0.095	-0.104529	-0.0766696	-0.0702499	-2.32593	0.973216	0.175714	0.476055	0.0838596	-0.311087	0.85356	0.468871	-0.058419	0.468277	0.485651	-0.230498	0.0268928	2.54875	-0.144734	-0.250498	0.316739	-0.269962	0.142236	0.126451	0.0677153	-0.557127	0.206105	1.26862	1.96866	-0.118691	-0.187268	-0.00256761	0.292247	2.05559
0.096	-0.0984448	-0.0752592	-0.0987697	-2.28798	0.972123	0.179053	0.428859	0.0968817	-0.274109	0.86427	0.495634	-0.0553735	0.463502	0.528903	-0.24814	0.00763618	2.55166	-0.142617	-0.266246	0.309757	-0.277951	0.126436	0.15914	0.139894	-0.554064	0.231029	1.2733	1.96649	-0.160133	-0.202944	-0.0113854	0.269498	2.06699
0.097	-0.0894025	-0.0552152	-0.104773	-2.25329	0.972897	0.182933	0.380675	0.0831986	-0.245248	0.867375	0.513949	-0.0527045	0.454374	0.565761	-0.232175	0.00663597	2.56571	-0.0167957	-0.227524	0.415583	-0.293244	0.0888089	0.16373	0.222981	-0.533602	0.248453	1.27344	1.9574	-0.200954	-0.231861	0.00141906	0.271562	2.05657
0.098	-0.0901181	-0.0457687	-0.122769	-2.21647	0.971952	0.185722	0.337256	0.0803407	-0.211972	0.866969	0.530689	-0.0441792	0.443968	0.624206	-0.234157	-0.00232935	2.55776	-0.0252867	-0.215352	0.346954	-0.292398	0.0666512	0.182092	0.291803	-0.524525	0.260639	1.28327	1.97521	-0.252533	-0.254928	0.0109409	0.272994	2.08571
0.099	-0.0983947	-0.0380291	-0.136896	-2.17835	0.970144	0.18759	0.296779	0.0748513	-0.186734	0.859716	0.546398	-0.0309446	0.443728	0.697662	-0.237839	-0.00624431	2.54885	-0.0400971	-0.228242	0.34743	-0.277672	0.0508803	0.198035	0.350381	-0.516899	0.268489	1.30048	1.97632	-0.309938	-0.272381	0.00727306	0.282419	2.08736
0.1	-0.105078	-0.020297	-0.149776	-2.14108	0.968892	0.189779	0.255176	0.0576237	-0.160899	0.847227	0.555546	-0.0176988	0.438349	0.765025	-0.227653	-0.0213344	2.53288	-0.0377695	-0.237256	0.321537	-0.265545	0.022922	0.210223	0.408593	-0.50404	0.26557	1.31584	2.01728	-0.371471	-0.296332	0.0188051	0.302829	2.09778
0.101	-0.119654	0.00233196	-0.162473	-2.10267	0.967165	0.191329	0.220491	0.0318384	-0.140615	0.830347	0.560163	0.00258937	0.439347	0.837664	-0.214277	-0.0425086	2.51223	-0.0374132	-0.246518	0.299707	-0.239618	-0.00656738	0.220393	0.458735	-0.490219	0.263424	1.33832	2.02378	-0.437831	-0.320058	0.0360878	0.323347	2.09747
0.102	-0.129212	0.0175933	-0.168962	-2.06387	0.965275	0.193142	0.175377	0.0115022	-0.129373	0.803748	0.558136	0.0214985	0.443393	0.908417	-0.208505	-0.0479839	2.49275	-0.00842635	-0.245828	0.207702	-0.218221	-0.0277921	0.227487	0.504685	-0.476038	0.252584	1.36024	2.08346	-0.513482	-0.3462	0.0633403	0.360673	2.09347
0.103	-0.144172	0.0419514	-0.176651	-2.0251	0.963281	0.195258	0.137966	-0.0183947	-0.118256	0.773919	0.549387	0.0408494	0.468013	0.978762	-0.198055	-0.0678885	2.46393	0.0101632	-0.248532	0.3688	-0.188235	-0.0590471	0.233944	0.5472	-0.456851	0.237536	1.38277	2.12926	-0.591839	-0.369455	0.0630979	0.408785	2.06343
0.104	-0.165334	0.0759893	-0.177389	-1.984	0.961041	0.194877	0.104193	-0.0662642	-0.124751	0.737695	0.533966	0.0750573	0.490019	1.05114	-0.171252	-0.0996258	2.42821	0.0158136	-0.26138	0.41952	-0.143204	-0.0935829	0.238095	0.574485	-0.44111	0.22005	1.41377	2.12854	-0.672186	-0.389678	0.0644012	0.440857	2.07843
0.105	-0.176985	0.0969255	-0.173039	-1.94579	0.959111	0.197154	0.0584294	-0.0931622	-0.130162	0.695091	0.508114	0.0948601	0.52132	1.11607	-0.157449	-0.112951	2.39277	0.0211295	-0.27347	0.418041	-0.119655	-0.122411	0.236542	0.615281	-0.422241	0.199743	1.43987	2.18311	-0.75684	-0.414767	0.0620724	0.498237	2.07049
0.106	-0.191531	0.114728	-0.167113	-1.90702	0.957181	0.199646	0.0119021	-0.113794	-0.136594	0.643767	0.468594	0.109877	0.548217	1.18124	-0.147814	-0.122509	2.35448	0.0312171	-0.285036	0.416897	-0.0932001	-0.148558	0.230124	0.654666	-0.398997	0.187178	1.47021	2.17946	-0.85226	-0.451979	0.098264	0.563549	2.08972
0.107	-0.210217	0.136484	-0.160509	-1.86719	0.955058	0.201021	-0.0312107	-0.139677	-0.148424	0.587666	0.419188	0.128693	0.604491	1.24772	-0.133997	-0.140964	2.31163	0.0360107	-0.311153	0.4692	-0.0563336	-0.175423	0.234891	0.681848	-0.384872	0.157358	1.49818	2.24513	-0.935935	-0.461018	0.0437917	0.603334	2.12351
0.108	-0.23485	0.156262	-0.152636	-1.82724	0.952897	0.201877	-0.0679206	-0.161594	-0.16156	0.527344	0.349303	0.14613	0.633054	1.31785	-0.120603	-0.158247	2.2636	0.0266738	-0.339429	0.580574	-0.0122634	-0.198047	0.24264	0.704354	-0.373411	0.133911	1.53607	2.24052	-1.0187	-0.463045	-0.0184928	0.650732	2.11339
0.109	-0.260868	0.173617	-0.14344	-1.78721	0.951098	0.202282	-0.101426	-0.180537	-0.177007	0.465802	0.265741	0.16147	0.707107	1.38272	-0.108964	-0.172292	2.21078	0.0252538	-0.357877	0.795832	0.0305716	-0.218331	0.241997	0.732528	-0.359122	0.118867	1.56891	2.25665	-1.10902	-0.480167	-0.0148929	0.693428	2.15382
0.11	-0.283288	0.190364	-0.133431	-1.74713	0.949662	0.202854	-0.137935	-0.197658	-0.193217	0.400981	0.163996	0.174675	0.762436	1.43871	-0.0984569	-0.186317	2.15797	0.0481595	-0.39263	0.50265	0.0717949	-0.238113	0.252411	0.753143	-0.352913	0.095889	1.60488	2.27442	-1.18218	-0.468921	-0.098503	0.725161	2.1586
0.111	-0.306098	0.204	-0.122794	-1.70707	0.948593	0.202935	-0.172044	-0.209989	-0.204274	0.334257	0.0409568	0.179973	0.799421	1.49057	-0.0882868	-0.198433	2.09953	0.0613439	-0.412091	0.479184	0.110688	-0.254267	0.256964	0.778277	-0.345654	0.0810086	1.63926	2.28828	-1.25652	-0.459972	-0.140402	0.765589	2.11141
0.112	-0.326384	0.214341	-0.115346	-1.66728	0.948244	0.203301	-0.203858	-0.218932	-0.205457	0.271379	-0.0988902	0.175766	0.799611	1.53322	-0.0827344	-0.20792	2.03602	0.075343	-0.431107	0.487331	0.145784	-0.26706	0.265285	0.802651	-0.340462	0.0674596	1.67497	2.29511	-1.32182	-0.45029	-0.18697	0.793043	2.11628
0.113	-0.34384	0.223902	-0.111727	-1.62773	0.94818	0.203616	-0.23498	-0.228323	-0.199964	0.213252	-0.239739	0.164989	0.717976	1.56765	-0.0814403	-0.218478	1.97009	0.0892873	-0.450873	0.47953	0.176107	-0.278181	0.271532	0.831523	-0.333148	0.0605442	1.708	2.27033	-1.38414	-0.439342	-0.208439	0.825599	2.06955
